<svg xmlns="http://www.w3.org/2000/svg" xmlns:xlink="http://www.w3.org/1999/xlink" width="880" height="896" viewBox="0 0 880 896" role="img" aria-label="GitHub profile for snapshot-user"><title>Snapshot User (@snapshot-user)</title><defs><linearGradient id="gold" x1="0%" y1="0%" x2="100%" y2="100%"><stop offset="0%" stop-color="#fff0b8"/><stop offset="45%" stop-color="#e8c547"/><stop offset="100%" stop-color="#a67c00"/></linearGradient><linearGradient id="foil" x1="0%" y1="0%" x2="0%" y2="100%"><stop offset="0%" stop-color="#fff0b8"/><stop offset="35%" stop-color="#e8c547"/><stop offset="70%" stop-color="#d4af37"/><stop offset="100%" stop-color="#7a5a12"/></linearGradient><radialGradient id="ambient-purple" cx="0%" cy="0%" r="75%"><stop offset="0%" stop-color="#7c5cbf" stop-opacity="0.22"/><stop offset="55%" stop-color="#4a3d78" stop-opacity="0.08"/><stop offset="100%" stop-color="#141624" stop-opacity="0"/></radialGradient><radialGradient id="ambient-gold" cx="100%" cy="100%" r="70%"><stop offset="0%" stop-color="#c9a227" stop-opacity="0.16"/><stop offset="60%" stop-color="#8b6914" stop-opacity="0.06"/><stop offset="100%" stop-color="#141624" stop-opacity="0"/></radialGradient><radialGradient id="ambient-blue" cx="80%" cy="15%" r="55%"><stop offset="0%" stop-color="#5b8def" stop-opacity="0.1"/><stop offset="100%" stop-color="#141624" stop-opacity="0"/></radialGradient></defs><defs><clipPath id="av"><circle cx="76" cy="58" r="42"/></clipPath></defs><rect width="880" height="896" rx="16" fill="#181b28"/><rect width="880" height="896" rx="16" fill="url(#ambient-purple)"/><rect width="880" height="896" rx="16" fill="url(#ambient-gold)"/><rect width="880" height="896" rx="16" fill="url(#ambient-blue)"/><rect x="0.5" y="0.5" width="879" height="895" rx="16" fill="none" stroke="url(#gold)" stroke-width="1.2" opacity="0.55"/><circle cx="76" cy="58" r="46" fill="#e8c547" opacity="0.18"/><circle cx="76" cy="58" r="42" fill="rgba(255,255,255,0.045)"/><text x="76" y="71" text-anchor="middle" fill="#eef1f8" font-family="Segoe UI,system-ui,-apple-system,BlinkMacSystemFont,sans-serif" font-size="36" font-weight="700">S</text><text x="196" y="50" fill="#eef1f8" font-family="Segoe UI,system-ui,-apple-system,BlinkMacSystemFont,sans-serif" font-size="28" font-weight="700">Snapshot User</text><text x="196" y="78" fill="#9aa3b5" font-family="Segoe UI,system-ui,-apple-system,BlinkMacSystemFont,sans-serif" font-size="17">@snapshot-user</text><svg x="714.24" y="41" width="18" height="18" viewBox="0 0 16 16"><path fill="#fff0b8" d="M8 1.5c1.2 2.2 2.5 3.1 2.5 5.5a2.5 2.5 0 01-5 0c0-1.2.5-2.2 1.2-3.4C5.8 4.8 5 6.5 5 8a3 3 0 006 0c0-1-.4-2-1.2-3.2.5 1.5.7 2.2.7 3.2a1.5 1.5 0 01-3 0C7.5 5.8 7.8 4.5 8 1.5z"/></svg><text x="738.24" y="55.6" fill="#e8c547" font-family="Segoe UI,system-ui,sans-serif" font-size="16" font-weight="700">7 day streak</text><svg x="348.68" y="146" width="24" height="24" viewBox="0 0 16 16"><path fill="#fff0b8" d="M1.5 8.5a1 1 0 011-1h2v7h-2a1 1 0 01-1-1v-5zm5 2a1 1 0 011-1h2v5h-2a1 1 0 01-1-1v-3zm5-3a1 1 0 011-1h2v8h-2a1 1 0 01-1-1V7.5z"/></svg><text x="378.68" y="166.4" fill="#e8c547" font-family="Segoe UI,system-ui,sans-serif" font-size="24" font-weight="700">Statistics</text><rect x="32" y="178" width="816" height="2" rx="1" fill="url(#gold)" opacity="0.8"/><rect x="32" y="198" width="261.3333333333333" height="108" rx="10" fill="rgba(255,255,255,0.045)" stroke="rgba(212,175,55,0.22)" stroke-width="1"/><rect x="38" y="208" width="4" height="88" rx="2" fill="url(#foil)"/><circle cx="265.3333333333333" cy="230" r="18" fill="#e8c547" opacity="0.14"/><svg x="255.33333333333331" y="220" width="20" height="20" viewBox="0 0 16 16"><path fill="#fff0b8" d="M1.5 8.5a1 1 0 011-1h2v7h-2a1 1 0 01-1-1v-5zm5 2a1 1 0 011-1h2v5h-2a1 1 0 01-1-1v-3zm5-3a1 1 0 011-1h2v8h-2a1 1 0 01-1-1V7.5z"/></svg><text x="58" y="236" fill="#eef1f8" font-family="Segoe UI,system-ui,-apple-system,BlinkMacSystemFont,sans-serif" font-size="18" font-weight="600">Total Contributions</text><text x="58" y="256" fill="#9aa3b5" font-family="Segoe UI,system-ui,-apple-system,BlinkMacSystemFont,sans-serif" font-size="15">All-time activity</text><text x="58" y="288" fill="#eef1f8" font-family="SFMono-Regular,Consolas,ui-monospace,monospace" font-size="32" font-weight="700">4.8k</text><rect x="309.3333333333333" y="198" width="261.3333333333333" height="108" rx="10" fill="rgba(255,255,255,0.045)" stroke="rgba(212,175,55,0.22)" stroke-width="1"/><rect x="315.3333333333333" y="208" width="4" height="88" rx="2" fill="url(#foil)"/><circle cx="542.6666666666666" cy="230" r="18" fill="#e8c547" opacity="0.14"/><svg x="532.6666666666666" y="220" width="20" height="20" viewBox="0 0 16 16"><path fill="#fff0b8" d="M8 1.5c1.2 2.2 2.5 3.1 2.5 5.5a2.5 2.5 0 01-5 0c0-1.2.5-2.2 1.2-3.4C5.8 4.8 5 6.5 5 8a3 3 0 006 0c0-1-.4-2-1.2-3.2.5 1.5.7 2.2.7 3.2a1.5 1.5 0 01-3 0C7.5 5.8 7.8 4.5 8 1.5z"/></svg><text x="335.3333333333333" y="236" fill="#eef1f8" font-family="Segoe UI,system-ui,-apple-system,BlinkMacSystemFont,sans-serif" font-size="18" font-weight="600">Current Streak</text><text x="335.3333333333333" y="256" fill="#9aa3b5" font-family="Segoe UI,system-ui,-apple-system,BlinkMacSystemFont,sans-serif" font-size="15">7 days active</text><text x="335.3333333333333" y="288" fill="#eef1f8" font-family="SFMono-Regular,Consolas,ui-monospace,monospace" font-size="32" font-weight="700">7</text><rect x="586.6666666666666" y="198" width="261.3333333333333" height="108" rx="10" fill="rgba(255,255,255,0.045)" stroke="rgba(212,175,55,0.22)" stroke-width="1"/><rect x="592.6666666666666" y="208" width="4" height="88" rx="2" fill="url(#foil)"/><circle cx="820" cy="230" r="18" fill="#e8c547" opacity="0.14"/><svg x="810" y="220" width="20" height="20" viewBox="0 0 16 16"><path fill="#fff0b8" d="M3 2.5h10v2a3 3 0 01-2.8 3 2.5 2.5 0 01-4.4 0A3 3 0 013 4.5v-2zm2 9.5h6v1.5H5V12zm1.5 1.5h3V15H6.5v-1z"/></svg><text x="612.6666666666666" y="236" fill="#eef1f8" font-family="Segoe UI,system-ui,-apple-system,BlinkMacSystemFont,sans-serif" font-size="18" font-weight="600">Longest Streak</text><text x="612.6666666666666" y="256" fill="#9aa3b5" font-family="Segoe UI,system-ui,-apple-system,BlinkMacSystemFont,sans-serif" font-size="15">Personal best</text><text x="612.6666666666666" y="288" fill="#eef1f8" font-family="SFMono-Regular,Consolas,ui-monospace,monospace" font-size="32" font-weight="700">26</text><rect x="32" y="322" width="150.4" height="108" rx="10" fill="rgba(255,255,255,0.045)" stroke="rgba(212,175,55,0.22)" stroke-width="1"/><rect x="38" y="332" width="4" height="88" rx="2" fill="url(#foil)"/><circle cx="154.4" cy="354" r="18" fill="#e8c547" opacity="0.14"/><svg x="144.4" y="344" width="20" height="20" viewBox="0 0 16 16"><path fill="#fff0b8" d="M8 .5l2.1 4.3 4.7.7-3.4 3.3.8 4.7L8 11.3 4.8 13.5l.8-4.7L2.2 5.5l4.7-.7L8 .5z"/></svg><text x="58" y="360" fill="#eef1f8" font-family="Segoe UI,system-ui,-apple-system,BlinkMacSystemFont,sans-serif" font-size="18" font-weight="600">Stars</text><text x="58" y="412" fill="#eef1f8" font-family="SFMono-Regular,Consolas,ui-monospace,monospace" font-size="32" font-weight="700">1.2k</text><rect x="198.4" y="322" width="150.4" height="108" rx="10" fill="rgba(255,255,255,0.045)" stroke="rgba(212,175,55,0.22)" stroke-width="1"/><rect x="204.4" y="332" width="4" height="88" rx="2" fill="url(#foil)"/><circle cx="320.8" cy="354" r="18" fill="#e8c547" opacity="0.14"/><svg x="310.8" y="344" width="20" height="20" viewBox="0 0 16 16"><path fill="#fff0b8" d="M8 1a3 3 0 100 6 3 3 0 000-6zm0 8.5a5.5 5.5 0 014.7 2.6l-1.4 1.4A3.5 3.5 0 008 12.5a3.5 3.5 0 01-3.3 2l-1.4-1.4A5.5 5.5 0 008 9.5z"/></svg><text x="224.4" y="360" fill="#eef1f8" font-family="Segoe UI,system-ui,-apple-system,BlinkMacSystemFont,sans-serif" font-size="18" font-weight="600">Commits</text><text x="224.4" y="412" fill="#eef1f8" font-family="SFMono-Regular,Consolas,ui-monospace,monospace" font-size="32" font-weight="700">57k</text><rect x="364.8" y="322" width="150.4" height="108" rx="10" fill="rgba(255,255,255,0.045)" stroke="rgba(212,175,55,0.22)" stroke-width="1"/><rect x="370.8" y="332" width="4" height="88" rx="2" fill="url(#foil)"/><circle cx="487.20000000000005" cy="354" r="18" fill="#e8c547" opacity="0.14"/><svg x="477.20000000000005" y="344" width="20" height="20" viewBox="0 0 16 16"><path fill="#fff0b8" d="M3 2.5a1.5 1.5 0 113 0 1.5 1.5 0 01-3 0zm10 0a1.5 1.5 0 113 0 1.5 1.5 0 01-3 0zM8 5.5a2 2 0 00-2 2v1H4.5a1 1 0 100 2H6v3.5a2 2 0 104 0V10.5h1.5a1 1 0 100-2H10v-1a2 2 0 00-2-2z"/></svg><text x="390.8" y="360" fill="#eef1f8" font-family="Segoe UI,system-ui,-apple-system,BlinkMacSystemFont,sans-serif" font-size="18" font-weight="600">Pull Requests</text><text x="390.8" y="412" fill="#eef1f8" font-family="SFMono-Regular,Consolas,ui-monospace,monospace" font-size="32" font-weight="700">999</text><rect x="531.2" y="322" width="150.4" height="108" rx="10" fill="rgba(255,255,255,0.045)" stroke="rgba(212,175,55,0.22)" stroke-width="1"/><rect x="537.2" y="332" width="4" height="88" rx="2" fill="url(#foil)"/><circle cx="653.6" cy="354" r="18" fill="#e8c547" opacity="0.14"/><svg x="643.6" y="344" width="20" height="20" viewBox="0 0 16 16"><path fill="#fff0b8" d="M2 2.5A1.5 1.5 0 013.5 1h9A1.5 1.5 0 0114 2.5v8a1.5 1.5 0 01-1.5 1.5H8l-3 2.5V12H3.5A1.5 1.5 0 012 10.5v-8zm1.5 1.5v8h9v-8h-9z"/></svg><text x="557.2" y="360" fill="#eef1f8" font-family="Segoe UI,system-ui,-apple-system,BlinkMacSystemFont,sans-serif" font-size="18" font-weight="600">Repositories</text><text x="557.2" y="412" fill="#eef1f8" font-family="SFMono-Regular,Consolas,ui-monospace,monospace" font-size="32" font-weight="700">42</text><rect x="697.6" y="322" width="150.4" height="108" rx="10" fill="rgba(255,255,255,0.045)" stroke="rgba(212,175,55,0.22)" stroke-width="1"/><rect x="703.6" y="332" width="4" height="88" rx="2" fill="url(#foil)"/><circle cx="820" cy="354" r="18" fill="#e8c547" opacity="0.14"/><svg x="810" y="344" width="20" height="20" viewBox="0 0 16 16"><path fill="#fff0b8" d="M2 2.5A1.5 1.5 0 013.5 1h9A1.5 1.5 0 0114 2.5v8A1.5 1.5 0 0112.5 12H8l-3 2.5V12H3.5A1.5 1.5 0 012 10.5v-8z"/></svg><text x="723.6" y="360" fill="#eef1f8" font-family="Segoe UI,system-ui,-apple-system,BlinkMacSystemFont,sans-serif" font-size="18" font-weight="600">Reviews</text><text x="723.6" y="412" fill="#eef1f8" font-family="SFMono-Regular,Consolas,ui-monospace,monospace" font-size="32" font-weight="700">12</text><svg x="328.52000000000004" y="468" width="24" height="24" viewBox="0 0 16 16"><path fill="#fff0b8" d="M5.5 4.5L1 8l4.5 3.5V9l-2-1 2-1V4.5zm5 0V7l2-1-2-1v2.5L15 8l-4.5 3.5V10l2 1-2 1V11.5L15 8l-4.5-3.5z"/></svg><text x="358.52000000000004" y="488.4" fill="#e8c547" font-family="Segoe UI,system-ui,sans-serif" font-size="24" font-weight="700">Top Languages</text><rect x="32" y="500" width="816" height="2" rx="1" fill="url(#gold)" opacity="0.8"/><rect x="32" y="520" width="816" height="92" rx="12" fill="rgba(255,255,255,0.045)" stroke="rgba(212,175,55,0.22)" stroke-width="1"/><rect x="44" y="522" width="36" height="36" rx="5" fill="rgba(255,255,255,0.1)" stroke="rgba(212,175,55,0.22)" stroke-width="1.25"/><svg x="47" y="525" width="30" height="30" viewBox="0 0 24 24" role="img" aria-hidden="true"><path d="M1.125 0C.502 0 0 .502 0 1.125v21.75C0 23.498.502 24 1.125 24h21.75c.623 0 1.125-.502 1.125-1.125V1.125C24 .502 23.498 0 22.875 0zm17.363 9.75c.612 0 1.154.037 1.627.111a6.38 6.38 0 0 1 1.306.34v2.458a3.95 3.95 0 0 0-.643-.361 5.093 5.093 0 0 0-.717-.26 5.453 5.453 0 0 0-1.426-.2c-.3 0-.573.028-.819.086a2.1 2.1 0 0 0-.623.242c-.17.104-.3.229-.393.374a.888.888 0 0 0-.14.49c0 .196.053.373.156.529.104.156.252.304.443.444s.423.276.696.41c.273.135.582.274.926.416.47.197.892.407 1.266.628.374.222.695.473.963.753.268.279.472.598.614.957.142.359.214.776.214 1.253 0 .657-.125 1.21-.373 1.656a3.033 3.033 0 0 1-1.012 1.085 4.38 4.38 0 0 1-1.487.596c-.566.12-1.163.18-1.79.18a9.916 9.916 0 0 1-1.84-.164 5.544 5.544 0 0 1-1.512-.493v-2.63a5.033 5.033 0 0 0 3.237 1.2c.333 0 .624-.03.872-.09.249-.06.456-.144.623-.25.166-.108.29-.234.373-.38a1.023 1.023 0 0 0-.074-1.089 2.12 2.12 0 0 0-.537-.5 5.597 5.597 0 0 0-.807-.444 27.72 27.72 0 0 0-1.007-.436c-.918-.383-1.602-.852-2.053-1.405-.45-.553-.676-1.222-.676-2.005 0-.614.123-1.141.369-1.582.246-.441.58-.804 1.004-1.089a4.494 4.494 0 0 1 1.47-.629 7.536 7.536 0 0 1 1.77-.201zm-15.113.188h9.563v2.166H9.506v9.646H6.789v-9.646H3.375z" fill="#3178C6"/></svg><text x="88" y="536.9" fill="#eef1f8" font-family="Segoe UI,system-ui,-apple-system,BlinkMacSystemFont,sans-serif" font-size="14" font-weight="600">TypeScript</text><text x="420" y="536.55" text-anchor="end" fill="#9aa3b5" font-family="SFMono-Regular,Consolas,ui-monospace,monospace" font-size="13">14k lines · 69.9%</text><rect x="88" y="544" width="332" height="14" rx="4" fill="rgba(255,255,255,0.06)"/><rect x="88" y="544" width="232.01331114808653" height="14" rx="4" fill="#3178c6" opacity="0.85"/><rect x="44" y="562" width="36" height="36" rx="5" fill="rgba(255,255,255,0.1)" stroke="rgba(212,175,55,0.22)" stroke-width="1.25"/><svg x="47" y="565" width="30" height="30" viewBox="0 0 24 24" role="img" aria-hidden="true"><path d="M14.25.18l.9.2.73.26.59.3.45.32.34.34.25.34.16.33.1.3.04.26.02.2-.01.13V8.5l-.05.63-.13.55-.21.46-.26.38-.3.31-.33.25-.35.19-.35.14-.33.1-.3.07-.26.04-.21.02H8.77l-.69.05-.59.14-.5.22-.41.27-.33.32-.27.35-.2.36-.15.37-.1.35-.07.32-.04.27-.02.21v3.06H3.17l-.21-.03-.28-.07-.32-.12-.35-.18-.36-.26-.36-.36-.35-.46-.32-.59-.28-.73-.21-.88-.14-1.05-.05-1.23.06-1.22.16-1.04.24-.87.32-.71.36-.57.4-.44.42-.33.42-.24.4-.16.36-.1.32-.05.24-.01h.16l.06.01h8.16v-.83H6.18l-.01-2.75-.02-.37.05-.34.11-.31.17-.28.25-.26.31-.23.38-.2.44-.18.51-.15.58-.12.64-.1.71-.06.77-.04.84-.02 1.27.05zm-6.3 1.98l-.23.33-.08.41.08.41.23.34.33.22.41.09.41-.09.33-.22.23-.34.08-.41-.08-.41-.23-.33-.33-.22-.41-.09-.41.09zm13.09 3.95l.28.06.32.12.35.18.36.27.36.35.35.47.32.59.28.73.21.88.14 1.04.05 1.23-.06 1.23-.16 1.04-.24.86-.32.71-.36.57-.4.45-.42.33-.42.24-.4.16-.36.09-.32.05-.24.02-.16-.01h-8.22v.82h5.84l.01 2.76.02.36-.05.34-.11.31-.17.29-.25.25-.31.24-.38.2-.44.17-.51.15-.58.13-.64.09-.71.07-.77.04-.84.01-1.27-.04-1.07-.14-.9-.2-.73-.25-.59-.3-.45-.33-.34-.34-.25-.34-.16-.33-.1-.3-.04-.25-.02-.2.01-.13v-5.34l.05-.64.13-.54.21-.46.26-.38.3-.32.33-.24.35-.2.35-.14.33-.1.3-.06.26-.04.21-.02.13-.01h5.84l.69-.05.59-.14.5-.21.41-.28.33-.32.27-.35.2-.36.15-.36.1-.35.07-.32.04-.28.02-.21V6.07h2.09l.14.01zm-6.47 14.25l-.23.33-.08.41.08.41.23.33.33.23.41.08.41-.08.33-.23.23-.33.08-.41-.08-.41-.23-.33-.33-.23-.41-.08-.41.08z" fill="#3776AB"/></svg><text x="88" y="576.9" fill="#eef1f8" font-family="Segoe UI,system-ui,-apple-system,BlinkMacSystemFont,sans-serif" font-size="14" font-weight="600">Python</text><text x="420" y="576.55" text-anchor="end" fill="#9aa3b5" font-family="SFMono-Regular,Consolas,ui-monospace,monospace" font-size="13">6k lines · 30.0%</text><rect x="88" y="584" width="332" height="14" rx="4" fill="rgba(255,255,255,0.06)"/><rect x="88" y="584" width="99.43427620632279" height="14" rx="4" fill="#3572A5" opacity="0.85"/><rect x="460" y="522" width="36" height="36" rx="5" fill="rgba(255,255,255,0.1)" stroke="rgba(212,175,55,0.22)" stroke-width="1.25"/><circle cx="478" cy="540" r="14.5" fill="#abcdef"/><text x="504" y="536.9" fill="#eef1f8" font-family="Segoe UI,system-ui,-apple-system,BlinkMacSystemFont,sans-serif" font-size="14" font-weight="600">UnknownLang</text><text x="836" y="536.55" text-anchor="end" fill="#9aa3b5" font-family="SFMono-Regular,Consolas,ui-monospace,monospace" font-size="13">33 lines · 0.2%</text><rect x="504" y="544" width="332" height="14" rx="4" fill="rgba(255,255,255,0.06)"/><rect x="504" y="544" width="2" height="14" rx="4" fill="#abcdef" opacity="0.85"/><text x="440" y="634.55" text-anchor="middle" fill="#9aa3b5" font-family="Segoe UI,system-ui,-apple-system,BlinkMacSystemFont,sans-serif" font-size="13">1.2M lines of JavaScript are not included in statistics.</text><svg x="313.64000000000004" y="678" width="24" height="24" viewBox="0 0 16 16"><path fill="#fff0b8" d="M3.5 2A1.5 1.5 0 012 3.5v1h12v-1A1.5 1.5 0 0012.5 2h-1V1h-1v1h-4V1H5.5v1h-1zM2 6v7.5A1.5 1.5 0 003.5 15h9a1.5 1.5 0 001.5-1.5V6H2z"/></svg><text x="343.64000000000004" y="698.4" fill="#e8c547" font-family="Segoe UI,system-ui,sans-serif" font-size="24" font-weight="700">Yearly Activity</text><rect x="32" y="710" width="816" height="2" rx="1" fill="url(#gold)" opacity="0.8"/><rect x="32" y="730" width="816" height="134" rx="12" fill="rgba(255,255,255,0.045)" stroke="rgba(212,175,55,0.22)" stroke-width="1"/><rect x="32" y="730" width="97" height="46" fill="rgba(212,175,55,0.06)" stroke="rgba(212,175,55,0.22)" stroke-width="1"/><svg x="49.7" y="745" width="16" height="16" viewBox="0 0 16 16"><path fill="#fff0b8" d="M3.5 2A1.5 1.5 0 012 3.5v1h12v-1A1.5 1.5 0 0012.5 2h-1V1h-1v1h-4V1H5.5v1h-1zM2 6v7.5A1.5 1.5 0 003.5 15h9a1.5 1.5 0 001.5-1.5V6H2z"/></svg><text x="71.7" y="758.25" fill="#e8c547" font-family="Segoe UI,system-ui,sans-serif" font-size="15" font-weight="700">Year</text><rect x="129" y="730" width="130" height="46" fill="rgba(212,175,55,0.06)" stroke="rgba(212,175,55,0.22)" stroke-width="1"/><svg x="149.25" y="745" width="16" height="16" viewBox="0 0 16 16"><path fill="#fff0b8" d="M8 1a3 3 0 100 6 3 3 0 000-6zm0 8.5a5.5 5.5 0 014.7 2.6l-1.4 1.4A3.5 3.5 0 008 12.5a3.5 3.5 0 01-3.3 2l-1.4-1.4A5.5 5.5 0 008 9.5z"/></svg><text x="171.25" y="758.25" fill="#e8c547" font-family="Segoe UI,system-ui,sans-serif" font-size="15" font-weight="700">Commits</text><rect x="259" y="730" width="114" height="46" fill="rgba(212,175,55,0.06)" stroke="rgba(212,175,55,0.22)" stroke-width="1"/><svg x="288.65" y="745" width="16" height="16" viewBox="0 0 16 16"><path fill="#fff0b8" d="M3 2.5a1.5 1.5 0 113 0 1.5 1.5 0 01-3 0zm10 0a1.5 1.5 0 113 0 1.5 1.5 0 01-3 0zM8 5.5a2 2 0 00-2 2v1H4.5a1 1 0 100 2H6v3.5a2 2 0 104 0V10.5h1.5a1 1 0 100-2H10v-1a2 2 0 00-2-2z"/></svg><text x="310.65" y="758.25" fill="#e8c547" font-family="Segoe UI,system-ui,sans-serif" font-size="15" font-weight="700">PRs</text><rect x="373" y="730" width="114" height="46" fill="rgba(212,175,55,0.06)" stroke="rgba(212,175,55,0.22)" stroke-width="1"/><svg x="389.9" y="745" width="16" height="16" viewBox="0 0 16 16"><path fill="#fff0b8" d="M8 1.5a6.5 6.5 0 110 13 6.5 6.5 0 010-13zm0 2a1 1 0 100 2 1 1 0 000-2zm1 3H7v5h2V6.5z"/></svg><text x="411.9" y="758.25" fill="#e8c547" font-family="Segoe UI,system-ui,sans-serif" font-size="15" font-weight="700">Issues</text><rect x="487" y="730" width="130" height="46" fill="rgba(212,175,55,0.06)" stroke="rgba(212,175,55,0.22)" stroke-width="1"/><svg x="507.25" y="745" width="16" height="16" viewBox="0 0 16 16"><path fill="#fff0b8" d="M2 2.5A1.5 1.5 0 013.5 1h9A1.5 1.5 0 0114 2.5v8A1.5 1.5 0 0112.5 12H8l-3 2.5V12H3.5A1.5 1.5 0 012 10.5v-8z"/></svg><text x="529.25" y="758.25" fill="#e8c547" font-family="Segoe UI,system-ui,sans-serif" font-size="15" font-weight="700">Reviews</text><rect x="617" y="730" width="231" height="46" fill="rgba(212,175,55,0.06)" stroke="rgba(212,175,55,0.22)" stroke-width="1"/><svg x="683.1" y="745" width="16" height="16" viewBox="0 0 16 16"><path fill="#fff0b8" d="M1.5 8.5a1 1 0 011-1h2v7h-2a1 1 0 01-1-1v-5zm5 2a1 1 0 011-1h2v5h-2a1 1 0 01-1-1v-3zm5-3a1 1 0 011-1h2v8h-2a1 1 0 01-1-1V7.5z"/></svg><text x="705.1" y="758.25" fill="#e8c547" font-family="Segoe UI,system-ui,sans-serif" font-size="15" font-weight="700">Activity</text><rect x="32" y="776" width="97" height="44" fill="rgba(255,255,255,0.02)" stroke="rgba(212,175,55,0.22)" stroke-width="0.75"/><text x="80.5" y="802.9" text-anchor="middle" fill="#e8c547" font-family="Segoe UI,system-ui,-apple-system,BlinkMacSystemFont,sans-serif" font-size="14" font-weight="700">2025</text><rect x="129" y="776" width="130" height="44" fill="rgba(255,255,255,0.02)" stroke="rgba(212,175,55,0.22)" stroke-width="0.75"/><text x="194" y="802.9" text-anchor="middle" fill="#eef1f8" font-family="SFMono-Regular,Consolas,ui-monospace,monospace" font-size="14" font-weight="600">98</text><rect x="259" y="776" width="114" height="44" fill="rgba(255,255,255,0.02)" stroke="rgba(212,175,55,0.22)" stroke-width="0.75"/><text x="316" y="802.9" text-anchor="middle" fill="#eef1f8" font-family="SFMono-Regular,Consolas,ui-monospace,monospace" font-size="14" font-weight="600">312</text><rect x="373" y="776" width="114" height="44" fill="rgba(255,255,255,0.02)" stroke="rgba(212,175,55,0.22)" stroke-width="0.75"/><text x="430" y="802.9" text-anchor="middle" fill="#eef1f8" font-family="SFMono-Regular,Consolas,ui-monospace,monospace" font-size="14" font-weight="600">9</text><rect x="487" y="776" width="130" height="44" fill="rgba(255,255,255,0.02)" stroke="rgba(212,175,55,0.22)" stroke-width="0.75"/><text x="552" y="802.9" text-anchor="middle" fill="#eef1f8" font-family="SFMono-Regular,Consolas,ui-monospace,monospace" font-size="14" font-weight="600">22</text><rect x="617" y="776" width="231" height="44" fill="rgba(255,255,255,0.02)" stroke="rgba(212,175,55,0.22)" stroke-width="0.75"/><text x="732.5" y="802.9" text-anchor="middle" fill="#eef1f8" font-family="SFMono-Regular,Consolas,ui-monospace,monospace" font-size="14" font-weight="600">2.1k</text><rect x="32" y="820" width="97" height="44" fill="transparent" stroke="rgba(212,175,55,0.22)" stroke-width="0.75"/><text x="80.5" y="846.9" text-anchor="middle" fill="#e8c547" font-family="Segoe UI,system-ui,-apple-system,BlinkMacSystemFont,sans-serif" font-size="14" font-weight="700">2024</text><rect x="129" y="820" width="130" height="44" fill="transparent" stroke="rgba(212,175,55,0.22)" stroke-width="0.75"/><text x="194" y="846.9" text-anchor="middle" fill="#eef1f8" font-family="SFMono-Regular,Consolas,ui-monospace,monospace" font-size="14" font-weight="600">124</text><rect x="259" y="820" width="114" height="44" fill="transparent" stroke="rgba(212,175,55,0.22)" stroke-width="0.75"/><text x="316" y="846.9" text-anchor="middle" fill="#eef1f8" font-family="SFMono-Regular,Consolas,ui-monospace,monospace" font-size="14" font-weight="600">210</text><rect x="373" y="820" width="114" height="44" fill="transparent" stroke="rgba(212,175,55,0.22)" stroke-width="0.75"/><text x="430" y="846.9" text-anchor="middle" fill="#eef1f8" font-family="SFMono-Regular,Consolas,ui-monospace,monospace" font-size="14" font-weight="600">6</text><rect x="487" y="820" width="130" height="44" fill="transparent" stroke="rgba(212,175,55,0.22)" stroke-width="0.75"/><text x="552" y="846.9" text-anchor="middle" fill="#eef1f8" font-family="SFMono-Regular,Consolas,ui-monospace,monospace" font-size="14" font-weight="600">18</text><rect x="617" y="820" width="231" height="44" fill="transparent" stroke="rgba(212,175,55,0.22)" stroke-width="0.75"/><text x="732.5" y="846.9" text-anchor="middle" fill="#eef1f8" font-family="SFMono-Regular,Consolas,ui-monospace,monospace" font-size="14" font-weight="600">890</text></svg>